<?xml version="1.0" encoding="utf-8"?>
<!-- Generator: Adobe Illustrator 23.0.3, SVG Export Plug-In . SVG Version: 6.00 Build 0)  -->
<svg version="1.1" id="レイヤー_1" xmlns="http://www.w3.org/2000/svg" xmlns:xlink="http://www.w3.org/1999/xlink" x="0px"
	 y="0px" width="866.8px" height="185px" viewBox="0 0 866.8 185" style="enable-background:new 0 0 866.8 185;"
	 xml:space="preserve">
<style type="text/css">
	.st0{fill:#E5E143;}
	.st1{fill:#285EA3;}
	.st2{fill:#2963AE;}
	.st3{fill:#EEE93A;}
	.st4{enable-background:new    ;}
	.st5{fill:#48494A;}
	.st6{fill:none;stroke:#FFFFFF;stroke-miterlimit:10;}
</style>
<title>logo_farocampaign</title>
<rect x="399" y="110.9" class="st0" width="248.6" height="1.9"/>
<rect x="170" y="110.9" class="st1" width="248.6" height="1.9"/>
<g>
	<polygon class="st2" points="206.5,19 148.1,19 119,69.6 148.1,119.9 206.5,119.9 235.5,69.6 	"/>
	<polygon class="st2" points="162.7,123.5 150.1,123.5 144,134.5 150.1,145.2 162.7,145.2 168.7,134.5 	"/>
	<polygon class="st2" points="184.3,139.9 171.8,139.9 165.4,150.5 171.8,161.4 184.3,161.4 190.5,150.5 	"/>
</g>
<g>
	<polygon class="st3" points="661.3,161.4 720.3,161.4 750,110.2 720.3,59.1 661.3,59.1 631.7,110.2 	"/>
	<polygon class="st3" points="705.7,55.5 718.3,55.5 724.8,44.5 718.3,33.5 705.7,33.5 699.3,44.5 	"/>
	<polygon class="st3" points="683.9,40.8 696.3,40.8 702.6,29.9 696.3,19 683.9,19 677.6,29.9 	"/>
</g>
<g class="st4">
	<path class="st5" d="M234.8,47.2H219V31.4c0-1.3-0.8-1.9-2.4-1.9c-1.7,0-2.5,0.6-2.5,1.9v55.2c0,1.3,0.8,1.9,2.5,1.9
		c1.6,0,2.4-0.6,2.4-1.9V67h15.9v20.2c0,3.8-1.8,6.8-5.5,9.1c-3.7,2.3-7.9,3.4-12.5,3.4c-13.5,0-20.2-4.8-20.2-14.3V34.1
		c0-10.3,6.7-15.5,20.2-15.5c12,0,18.1,4.7,18.1,14.1V47.2z"/>
</g>
<g class="st4">
	<path class="st6" d="M234.8,47.2H219V31.4c0-1.3-0.8-1.9-2.4-1.9c-1.7,0-2.5,0.6-2.5,1.9v55.2c0,1.3,0.8,1.9,2.5,1.9
		c1.6,0,2.4-0.6,2.4-1.9V67h15.9v20.2c0,3.8-1.8,6.8-5.5,9.1c-3.7,2.3-7.9,3.4-12.5,3.4c-13.5,0-20.2-4.8-20.2-14.3V34.1
		c0-10.3,6.7-15.5,20.2-15.5c12,0,18.1,4.7,18.1,14.1V47.2z"/>
</g>
<g class="st4">
	<path class="st5" d="M293.7,98.9h-15.8V47c0-2-0.9-2.9-2.7-2.9c-1.8,0-2.7,0.9-2.7,2.8v52h-15.8V19.4h15.8v17.1
		c1.9-1.6,5.1-2.4,9.8-2.4c3.1,0,5.8,0.8,8,2.4c2.2,1.6,3.4,3.8,3.4,6.5V98.9z"/>
</g>
<g class="st4">
	<path class="st6" d="M293.7,98.9h-15.8V47c0-2-0.9-2.9-2.7-2.9c-1.8,0-2.7,0.9-2.7,2.8v52h-15.8V19.4h15.8v17.1
		c1.9-1.6,5.1-2.4,9.8-2.4c3.1,0,5.8,0.8,8,2.4c2.2,1.6,3.4,3.8,3.4,6.5V98.9z"/>
</g>
<g class="st4">
	<path class="st5" d="M355,98.9h-14v-2.5c-1.2,2.3-4.6,3.4-10.1,3.4c-8.6,0-12.9-3.4-12.9-10.1V76.8c0-2.9,1-5.4,3.1-7.5
		c2.1-2.1,6.3-4.8,12.6-8c3.7-1.8,5.5-3.3,5.5-4.4v-9.5c0-2.1-0.9-3.2-2.7-3.2c-2.1,0-3.1,2.6-3.1,7.7c0,0.9,0.1,2.3,0.2,4.1
		c0.1,1.8,0.2,3.2,0.2,4.1h-15.2V47.1c0-8.7,6.3-13,18.8-13c11.8,0,17.6,4.5,17.6,13.6V98.9z M339.2,86.9V70.3
		c-3.6,0.9-5.4,2.5-5.4,4.9v11.7c0,2,0.9,2.9,2.8,2.9C338.3,89.8,339.2,88.8,339.2,86.9z"/>
</g>
<g class="st4">
	<path class="st6" d="M355,98.9h-14v-2.5c-1.2,2.3-4.6,3.4-10.1,3.4c-8.6,0-12.9-3.4-12.9-10.1V76.8c0-2.9,1-5.4,3.1-7.5
		c2.1-2.1,6.3-4.8,12.6-8c3.7-1.8,5.5-3.3,5.5-4.4v-9.5c0-2.1-0.9-3.2-2.7-3.2c-2.1,0-3.1,2.6-3.1,7.7c0,0.9,0.1,2.3,0.2,4.1
		c0.1,1.8,0.2,3.2,0.2,4.1h-15.2V47.1c0-8.7,6.3-13,18.8-13c11.8,0,17.6,4.5,17.6,13.6V98.9z M339.2,86.9V70.3
		c-3.6,0.9-5.4,2.5-5.4,4.9v11.7c0,2,0.9,2.9,2.8,2.9C338.3,89.8,339.2,88.8,339.2,86.9z"/>
</g>
<g class="st4">
	<path class="st5" d="M418.7,61.2h-15.8v-14c0-2-0.9-2.9-2.7-2.9c-1.8,0-2.7,0.9-2.7,2.8v51.8h-15.8V34.5h15.8v2.2
		c2.1-1.7,5.4-2.6,9.8-2.6c3.1,0,5.8,0.8,8.1,2.5c2.3,1.7,3.4,3.9,3.4,6.6V61.2z"/>
</g>
<g class="st4">
	<path class="st6" d="M418.7,61.2h-15.8v-14c0-2-0.9-2.9-2.7-2.9c-1.8,0-2.7,0.9-2.7,2.8v51.8h-15.8V34.5h15.8v2.2
		c2.1-1.7,5.4-2.6,9.8-2.6c3.1,0,5.8,0.8,8.1,2.5c2.3,1.7,3.4,3.9,3.4,6.6V61.2z"/>
</g>
<g class="st4">
	<path class="st5" d="M498.2,98.9h-15.8V47.5c0-2-0.9-2.9-2.7-2.9c-1.8,0-2.7,0.9-2.7,2.8v51.6h-15.8V47.3c0-2-0.9-2.9-2.7-2.9
		c-1.8,0-2.7,0.9-2.7,2.8v51.7H440V34.5h15.8v2.3c2.2-1.8,5.4-2.7,9.8-2.7c3.7,0,7,1.5,10,4.4c2.8-2.9,6.6-4.4,11.4-4.4
		c2.7,0,5.3,0.8,7.7,2.5c2.4,1.6,3.6,3.9,3.6,6.8V98.9z"/>
</g>
<g class="st4">
	<path class="st6" d="M498.2,98.9h-15.8V47.5c0-2-0.9-2.9-2.7-2.9c-1.8,0-2.7,0.9-2.7,2.8v51.6h-15.8V47.3c0-2-0.9-2.9-2.7-2.9
		c-1.8,0-2.7,0.9-2.7,2.8v51.7H440V34.5h15.8v2.3c2.2-1.8,5.4-2.7,9.8-2.7c3.7,0,7,1.5,10,4.4c2.8-2.9,6.6-4.4,11.4-4.4
		c2.7,0,5.3,0.8,7.7,2.5c2.4,1.6,3.6,3.9,3.6,6.8V98.9z"/>
</g>
<g class="st4">
	<path class="st5" d="M559.5,98.9h-14v-2.5c-1.2,2.3-4.6,3.4-10.1,3.4c-8.6,0-12.9-3.4-12.9-10.1V76.8c0-2.9,1-5.4,3.1-7.5
		c2.1-2.1,6.3-4.8,12.6-8c3.7-1.8,5.5-3.3,5.5-4.4v-9.5c0-2.1-0.9-3.2-2.7-3.2c-2.1,0-3.1,2.6-3.1,7.7c0,0.9,0.1,2.3,0.2,4.1
		c0.1,1.8,0.2,3.2,0.2,4.1h-15.2V47.1c0-8.7,6.3-13,18.8-13c11.8,0,17.6,4.5,17.6,13.6V98.9z M543.7,86.9V70.3
		c-3.6,0.9-5.4,2.5-5.4,4.9v11.7c0,2,0.9,2.9,2.8,2.9C542.9,89.8,543.7,88.8,543.7,86.9z"/>
</g>
<g class="st4">
	<path class="st6" d="M559.5,98.9h-14v-2.5c-1.2,2.3-4.6,3.4-10.1,3.4c-8.6,0-12.9-3.4-12.9-10.1V76.8c0-2.9,1-5.4,3.1-7.5
		c2.1-2.1,6.3-4.8,12.6-8c3.7-1.8,5.5-3.3,5.5-4.4v-9.5c0-2.1-0.9-3.2-2.7-3.2c-2.1,0-3.1,2.6-3.1,7.7c0,0.9,0.1,2.3,0.2,4.1
		c0.1,1.8,0.2,3.2,0.2,4.1h-15.2V47.1c0-8.7,6.3-13,18.8-13c11.8,0,17.6,4.5,17.6,13.6V98.9z M543.7,86.9V70.3
		c-3.6,0.9-5.4,2.5-5.4,4.9v11.7c0,2,0.9,2.9,2.8,2.9C542.9,89.8,543.7,88.8,543.7,86.9z"/>
</g>
<g class="st4">
	<path class="st5" d="M623.5,61.2h-15.8v-14c0-2-0.9-2.9-2.7-2.9s-2.7,0.9-2.7,2.8v51.8h-15.8V34.5h15.8v2.2
		c2.1-1.7,5.4-2.6,9.8-2.6c3.1,0,5.8,0.8,8.1,2.5c2.3,1.7,3.4,3.9,3.4,6.6V61.2z"/>
</g>
<g class="st4">
	<path class="st6" d="M623.5,61.2h-15.8v-14c0-2-0.9-2.9-2.7-2.9s-2.7,0.9-2.7,2.8v51.8h-15.8V34.5h15.8v2.2
		c2.1-1.7,5.4-2.6,9.8-2.6c3.1,0,5.8,0.8,8.1,2.5c2.3,1.7,3.4,3.9,3.4,6.6V61.2z"/>
</g>
<g class="st4">
	<path class="st5" d="M673.9,98.9h-10c-7.1,0-11.4-1.1-12.8-3.2c-1.4-2.1-2.1-6.3-2.1-12.4V44.1h-7v-9.5h7v-13h15.8v13h8.5v9.5h-8.5
		v39.1c0,1.9,0.6,3.2,1.7,3.8c1.1,0.6,3.6,1,7.4,1V98.9z"/>
</g>
<g class="st4">
	<path class="st6" d="M673.9,98.9h-10c-7.1,0-11.4-1.1-12.8-3.2c-1.4-2.1-2.1-6.3-2.1-12.4V44.1h-7v-9.5h7v-13h15.8v13h8.5v9.5h-8.5
		v39.1c0,1.9,0.6,3.2,1.7,3.8c1.1,0.6,3.6,1,7.4,1V98.9z"/>
</g>
<g class="st4">
	<path class="st5" d="M289.7,132.4h-9.1v-9c0-0.7-0.5-1.1-1.4-1.1c-1,0-1.4,0.4-1.4,1.1v31.5c0,0.7,0.5,1.1,1.4,1.1
		c0.9,0,1.4-0.4,1.4-1.1v-11.2h9.1v11.5c0,2.2-1.1,3.9-3.2,5.2c-2.1,1.3-4.5,1.9-7.2,1.9c-7.7,0-11.5-2.7-11.5-8.2V125
		c0-5.9,3.8-8.8,11.5-8.8c6.9,0,10.3,2.7,10.3,8V132.4z"/>
	<path class="st5" d="M331,162h-8v-1.4c-0.7,1.3-2.6,1.9-5.8,1.9c-4.9,0-7.4-1.9-7.4-5.8v-7.4c0-1.6,0.6-3.1,1.8-4.3
		c1.2-1.2,3.6-2.8,7.2-4.6c2.1-1.1,3.1-1.9,3.1-2.5v-5.4c0-1.2-0.5-1.8-1.6-1.8c-1.2,0-1.8,1.5-1.8,4.4c0,0.5,0,1.3,0.1,2.3
		c0.1,1,0.1,1.8,0.1,2.3h-8.7v-7.3c0-5,3.6-7.4,10.8-7.4c6.7,0,10.1,2.6,10.1,7.8V162z M322,155.1v-9.5c-2.1,0.5-3.1,1.4-3.1,2.8
		v6.7c0,1.1,0.5,1.7,1.6,1.7C321.5,156.8,322,156.2,322,155.1z"/>
	<path class="st5" d="M384.5,162h-9v-29.4c0-1.1-0.5-1.7-1.5-1.7c-1,0-1.6,0.5-1.6,1.6V162h-9v-29.5c0-1.1-0.5-1.7-1.5-1.7
		c-1,0-1.6,0.5-1.6,1.6V162h-9v-36.8h9v1.3c1.2-1,3.1-1.6,5.6-1.6c2.1,0,4,0.8,5.7,2.5c1.6-1.7,3.7-2.5,6.5-2.5c1.6,0,3,0.5,4.4,1.4
		s2.1,2.2,2.1,3.9V162z"/>
	<path class="st5" d="M413.5,161.1v8.6h-9v-44.6h6.8l0.8,1.5c1.5-1.2,3.2-1.7,5.3-1.7c2.1,0,4,0.5,5.7,1.6c1.7,1,2.6,2.5,2.6,4.5
		v26.4c0,1.5-0.6,2.8-1.9,3.7c-1.3,0.9-2.8,1.4-4.6,1.4C416.6,162.5,414.7,162,413.5,161.1z M416.6,155.1v-22.8
		c0-1.1-0.5-1.7-1.6-1.7c-1.1,0-1.6,0.6-1.6,1.7v22.8c0,1.1,0.5,1.6,1.6,1.6C416.1,156.8,416.6,156.2,416.6,155.1z"/>
	<path class="st5" d="M466.9,162h-8v-1.4c-0.7,1.3-2.6,1.9-5.8,1.9c-4.9,0-7.4-1.9-7.4-5.8v-7.4c0-1.6,0.6-3.1,1.8-4.3
		c1.2-1.2,3.6-2.8,7.2-4.6c2.1-1.1,3.1-1.9,3.1-2.5v-5.4c0-1.2-0.5-1.8-1.6-1.8c-1.2,0-1.8,1.5-1.8,4.4c0,0.5,0,1.3,0.1,2.3
		c0.1,1,0.1,1.8,0.1,2.3H446v-7.3c0-5,3.6-7.4,10.8-7.4c6.7,0,10.1,2.6,10.1,7.8V162z M457.8,155.1v-9.5c-2.1,0.5-3.1,1.4-3.1,2.8
		v6.7c0,1.1,0.5,1.7,1.6,1.7C457.3,156.8,457.8,156.2,457.8,155.1z"/>
	<path class="st5" d="M495.8,123.2h-9v-6.6h9V123.2z M495.8,162h-9v-36.8h9V162z"/>
	<path class="st5" d="M517.3,169.8v-5.3h7.3c2.1,0,3.2-1.1,3.2-3.3c-1.2,0.9-3,1.4-5.6,1.4c-1.8,0-3.3-0.5-4.6-1.4
		c-1.3-0.9-2-2.2-2-3.7V131c0-4,2.4-6,7.2-6c1.3,0,2.9,0.5,5,1.6l1.2-1.4h7.8v36.3c0,2.4-0.5,4.4-1.4,5.9s-3.9,2.4-8.8,2.4H517.3z
		 M527.8,155.4v-23.1c0-1.1-0.5-1.7-1.6-1.7c-1.1,0-1.6,0.6-1.6,1.7v23c0,1.1,0.5,1.7,1.6,1.7C527.3,157,527.8,156.5,527.8,155.4z"
		/>
	<path class="st5" d="M577.9,162h-9v-29.5c0-1.1-0.5-1.7-1.6-1.7c-1,0-1.6,0.5-1.6,1.6V162h-9v-36.8h9v1.2c1.2-1,3.1-1.5,5.6-1.5
		c1.6,0,3.1,0.4,4.5,1.3c1.4,0.9,2.1,2.2,2.1,3.9V162z"/>
</g>
<g class="st4">
	<path class="st6" d="M289.7,132.4h-9.1v-9c0-0.7-0.5-1.1-1.4-1.1c-1,0-1.4,0.4-1.4,1.1v31.5c0,0.7,0.5,1.1,1.4,1.1
		c0.9,0,1.4-0.4,1.4-1.1v-11.2h9.1v11.5c0,2.2-1.1,3.9-3.2,5.2c-2.1,1.3-4.5,1.9-7.2,1.9c-7.7,0-11.5-2.7-11.5-8.2V125
		c0-5.9,3.8-8.8,11.5-8.8c6.9,0,10.3,2.7,10.3,8V132.4z"/>
	<path class="st6" d="M331,162h-8v-1.4c-0.7,1.3-2.6,1.9-5.8,1.9c-4.9,0-7.4-1.9-7.4-5.8v-7.4c0-1.6,0.6-3.1,1.8-4.3
		c1.2-1.2,3.6-2.8,7.2-4.6c2.1-1.1,3.1-1.9,3.1-2.5v-5.4c0-1.2-0.5-1.8-1.6-1.8c-1.2,0-1.8,1.5-1.8,4.4c0,0.5,0,1.3,0.1,2.3
		c0.1,1,0.1,1.8,0.1,2.3h-8.7v-7.3c0-5,3.6-7.4,10.8-7.4c6.7,0,10.1,2.6,10.1,7.8V162z M322,155.1v-9.5c-2.1,0.5-3.1,1.4-3.1,2.8
		v6.7c0,1.1,0.5,1.7,1.6,1.7C321.5,156.8,322,156.2,322,155.1z"/>
	<path class="st6" d="M384.5,162h-9v-29.4c0-1.1-0.5-1.7-1.5-1.7c-1,0-1.6,0.5-1.6,1.6V162h-9v-29.5c0-1.1-0.5-1.7-1.5-1.7
		c-1,0-1.6,0.5-1.6,1.6V162h-9v-36.8h9v1.3c1.2-1,3.1-1.6,5.6-1.6c2.1,0,4,0.8,5.7,2.5c1.6-1.7,3.7-2.5,6.5-2.5c1.6,0,3,0.5,4.4,1.4
		s2.1,2.2,2.1,3.9V162z"/>
	<path class="st6" d="M413.5,161.1v8.6h-9v-44.6h6.8l0.8,1.5c1.5-1.2,3.2-1.7,5.3-1.7c2.1,0,4,0.5,5.7,1.6c1.7,1,2.6,2.5,2.6,4.5
		v26.4c0,1.5-0.6,2.8-1.9,3.7c-1.3,0.9-2.8,1.4-4.6,1.4C416.6,162.5,414.7,162,413.5,161.1z M416.6,155.1v-22.8
		c0-1.1-0.5-1.7-1.6-1.7c-1.1,0-1.6,0.6-1.6,1.7v22.8c0,1.1,0.5,1.6,1.6,1.6C416.1,156.8,416.6,156.2,416.6,155.1z"/>
	<path class="st6" d="M466.9,162h-8v-1.4c-0.7,1.3-2.6,1.9-5.8,1.9c-4.9,0-7.4-1.9-7.4-5.8v-7.4c0-1.6,0.6-3.1,1.8-4.3
		c1.2-1.2,3.6-2.8,7.2-4.6c2.1-1.1,3.1-1.9,3.1-2.5v-5.4c0-1.2-0.5-1.8-1.6-1.8c-1.2,0-1.8,1.5-1.8,4.4c0,0.5,0,1.3,0.1,2.3
		c0.1,1,0.1,1.8,0.1,2.3H446v-7.3c0-5,3.6-7.4,10.8-7.4c6.7,0,10.1,2.6,10.1,7.8V162z M457.8,155.1v-9.5c-2.1,0.5-3.1,1.4-3.1,2.8
		v6.7c0,1.1,0.5,1.7,1.6,1.7C457.3,156.8,457.8,156.2,457.8,155.1z"/>
	<path class="st6" d="M495.8,123.2h-9v-6.6h9V123.2z M495.8,162h-9v-36.8h9V162z"/>
	<path class="st6" d="M517.3,169.8v-5.3h7.3c2.1,0,3.2-1.1,3.2-3.3c-1.2,0.9-3,1.4-5.6,1.4c-1.8,0-3.3-0.5-4.6-1.4
		c-1.3-0.9-2-2.2-2-3.7V131c0-4,2.4-6,7.2-6c1.3,0,2.9,0.5,5,1.6l1.2-1.4h7.8v36.3c0,2.4-0.5,4.4-1.4,5.9s-3.9,2.4-8.8,2.4H517.3z
		 M527.8,155.4v-23.1c0-1.1-0.5-1.7-1.6-1.7c-1.1,0-1.6,0.6-1.6,1.7v23c0,1.1,0.5,1.7,1.6,1.7C527.3,157,527.8,156.5,527.8,155.4z"
		/>
	<path class="st6" d="M577.9,162h-9v-29.5c0-1.1-0.5-1.7-1.6-1.7c-1,0-1.6,0.5-1.6,1.6V162h-9v-36.8h9v1.2c1.2-1,3.1-1.5,5.6-1.5
		c1.6,0,3.1,0.4,4.5,1.3c1.4,0.9,2.1,2.2,2.1,3.9V162z"/>
</g>
</svg>
